<?xml version="1.0" encoding="utf-8"?>
<!-- Designed by Vexels.com - 2016 All Rights Reserved - https://vexels.com/terms-and-conditions/  -->

<svg version="1.1" id="Capa_1" xmlns="http://www.w3.org/2000/svg" xmlns:xlink="http://www.w3.org/1999/xlink" x="0px" y="0px"
	 width="1200px" height="1200px" viewBox="0 0 1200 1200" enable-background="new 0 0 1200 1200" xml:space="preserve">
<path fill="#004A22" d="M1025.587,731.089c7.706,0,146.454,74.511,146.454,74.511l-125.899,264.645
	c0,0-84.791-64.233-143.884-74.513c35.971-17.986,61.995-32.563,61.995-32.563L1025.587,731.089z"/>
<path fill="#004A22" d="M187.974,731.089c-7.708,0-146.456,74.511-146.456,74.511l125.899,264.645c0,0,84.791-64.233,143.887-74.513
	c-35.972-17.986-61.998-32.563-61.998-32.563L187.974,731.089z"/>
<path fill="#004A22" d="M1061.806,574.757c0-269.808-204.263-488.531-456.233-488.531c-251.972,0-456.237,218.724-456.237,488.531
	c0,269.811,204.265,488.536,456.237,488.536C857.543,1063.292,1061.806,844.567,1061.806,574.757z"/>
<path fill="#BE0411" d="M1044.191,574.757c0-259.389-196.376-469.666-438.618-469.666s-438.62,210.277-438.62,469.666
	c0,259.393,196.378,469.671,438.62,469.671S1044.191,834.15,1044.191,574.757z"/>
<g>
	<path fill="#F2DDB3" d="M207.832,389.383c0,0,319.473,628.59,350.486,698.373c34.141,76.815,68.285,66.148,98.161,4.266
		c12.418-25.728,25.743-33.967,315.714-720.924C972.192,371.097,497.463,96.042,207.832,389.383z"/>
	<path fill="#B63A1D" d="M247.879,382.973c13.362,19.442,24.304,58.33,32.807,76.557c8.506,18.227,8.506,29.165,14.583,44.963
		c6.076,15.795,0.004,59.542,20.659,77.771c20.661,18.228,30.377,8.507,42.532,40.101c12.151,31.593,71.694,167.695,81.419,189.57
		c9.721,21.871,120.3,244.251,137.314,267.34c17.014,23.085,20.659,47.39,30.376,42.532c9.725-4.863,30.379-17.014,44.963-48.611
		c14.584-31.596,72.912-145.823,83.849-183.49c10.936-37.673,74.129-219.952,97.216-257.621
		c23.085-37.668,24.446-70.223,37.741-102.557c13.292-32.329,52.181-125.897,52.181-125.897s-452.048-100.86-505.513-78.988
		C364.536,346.518,247.879,382.973,247.879,382.973z"/>
	<path fill="#EFCF76" d="M238.301,358.74c4.915,16.394-20.422-11.137,5.565,29.703c25.995,40.842,40.845,68.688,48.269,98.391
		c7.428,29.699,1.858,38.981,25.993,61.261c24.13,22.277,38.984,24.133,42.698,50.122c3.71,25.991,7.422,37.129,27.842,76.114
		c20.422,38.984,83.54,198.64,98.391,233.911c14.853,35.271,46.413,61.262,50.125,81.685c3.71,20.422,31.558,63.116,31.558,63.116
		c27.844,16.705,27.844,29.7,29.704,35.269c1.854,5.572,1.858,48.271,25.991,11.14c24.132-37.126,83.537-181.929,116.956-243.19
		c33.413-61.262,63.116-187.5,77.969-219.058c14.848-31.56-9.284-24.134,51.977-107.674
		c61.263-83.537,90.965-146.655,79.829-163.362c-11.142-16.709-141.714-62.689-210.403-86.823
		c-68.687-24.133-251.498-58.292-311.253-15.281C366.406,309.481,232.735,340.176,238.301,358.74z"/>
	<path fill="#F2DDB3" d="M131.75,305.818c2.349,6.265,33.415,103.957,55.691,96.533c22.278-7.427,64.975-37.128,64.975-37.128
		s116.958-44.557,133.666-57.551c16.707-12.995,46.413-33.415,76.111-29.702c29.702,3.712,44.552,11.138,57.549,9.281
		c12.997-1.855,16.707,3.714,42.696-5.568c25.99-9.283,76.117,9.283,128.098,18.564c51.975,9.281,64.973,16.708,96.531,16.708
		c31.561,0,85.393,11.139,102.103,22.278c16.708,11.138,63.117,59.405,79.826,42.696c16.71-16.706,42.696-68.688,42.696-68.688
		s25.995-31.56,1.856-44.554c-24.132-12.995-192.979-85.264-395.415-94.676c-79.827-3.714-280.32,20.418-358.291,42.696
		C181.874,238.985,120.614,276.116,131.75,305.818z"/>
	<g opacity="0.3">
		<defs>
			<path id="SVGID_4_" opacity="0.3" d="M207.832,389.383c0,0,319.473,628.59,350.486,698.373
				c34.141,76.815,68.285,66.148,98.161,4.266c12.418-25.728,25.743-33.967,315.714-720.924
				C972.192,371.097,497.463,96.042,207.832,389.383z"/>
		</defs>
		<clipPath id="SVGID_2_">
			<use xlink:href="#SVGID_4_"  overflow="visible"/>
		</clipPath>
		<path opacity="0.4" clip-path="url(#SVGID_2_)" d="M131.75,333.575c2.349,6.266,33.415,103.959,55.691,96.532
			c22.278-7.425,64.975-37.127,64.975-37.127s107.678-59.317,124.381-72.313c16.707-12.994,55.697-18.652,85.396-14.939
			c29.702,3.712,40.838-18.477,53.836-20.332c12.997-1.858,44.555,3.712,70.545-5.57c25.99-9.283,63.119,14.851,115.097,24.133
			c51.98,9.282,66.831,22.277,98.389,22.277c31.563,0,77.971,24.134,94.679,35.271c16.708,11.141,76.111,46.412,92.819,29.704
			c16.708-16.708,24.132-50.213,24.132-50.213s25.995-31.56,1.856-44.554c-24.132-12.995-192.979-85.261-395.415-94.677
			c-79.827-3.713-280.32,20.42-358.291,42.698C181.874,266.742,120.614,303.871,131.75,333.575z"/>
	</g>
	<path opacity="0.8" fill="#FFFFFF" d="M150.617,285.688c5.882-3.917,36.646-39.971,134.911-59.958
		c98.267-19.985,129.914-23.317,208.195-34.978c78.277-11.658,133.242-4.996,128.244-6.662
		c-4.996-1.664-121.583-4.994-249.833,41.64C243.893,272.365,180.6,335.653,170.605,333.99
		C160.609,332.324,130.631,299.013,150.617,285.688z"/>
	<path opacity="0.8" fill="#FFFFFF" d="M721.899,197.417c38.632,0,204.861,49.965,226.513,54.962
		c21.654,4.995,64.955,23.316,64.955,34.975c0,11.66-11.655,19.988-19.984,16.656c-8.333-3.331-101.601-64.957-161.558-74.95
		C771.864,219.067,655.279,197.417,721.899,197.417z"/>
	<g>
		<path fill="#B63A1D" d="M626.838,487.625c45.066-16.041,68.586-65.577,52.547-110.638
			c-16.043-45.061-65.577-68.587-110.642-52.543c-45.063,16.042-68.585,65.577-52.543,110.639
			C532.241,480.144,581.779,503.668,626.838,487.625z"/>
		<path fill="#C75634" d="M679.385,376.987c-16.043-45.061-65.577-68.587-110.642-52.543
			c-45.063,16.042-68.585,65.577-52.543,110.639c16.042,45.061,65.579,68.585,110.639,52.542
			C671.905,471.585,695.425,422.049,679.385,376.987z M520.164,433.671c-15.263-42.873,7.12-90,49.992-105.265
			c42.873-15.264,92.874,5.082,108.136,47.954c15.262,42.87-9.987,92.04-52.862,107.304
			C582.554,498.927,535.426,476.543,520.164,433.671z"/>
		<path fill="#F2DDB3" d="M547.92,387.425c-3.379-1.554-6.859-1.208-7.774,0.77c-0.905,1.979,1.096,4.844,4.473,6.402
			c3.377,1.556,6.861,1.211,7.769-0.768C553.302,391.85,551.3,388.982,547.92,387.425z"/>
		<path fill="#F2DDB3" d="M541.097,413.317c-3.694,0.4-6.509,2.48-6.273,4.646c0.233,2.165,3.42,3.602,7.118,3.206
			c3.7-0.399,6.511-2.481,6.278-4.646C547.988,414.354,544.795,412.921,541.097,413.317z"/>
		<path fill="#F2DDB3" d="M612.781,352.842c1.167-3.541,0.432-6.974-1.636-7.669c-2.066-0.694-4.693,1.614-5.864,5.151
			c-1.166,3.541-0.435,6.975,1.635,7.666C608.987,358.688,611.613,356.38,612.781,352.842z"/>
		<path fill="#F2DDB3" d="M643.326,388.059c3.352-1.631,5.298-4.552,4.355-6.52c-0.941-1.965-4.427-2.24-7.781-0.61
			c-3.352,1.631-5.298,4.551-4.354,6.518C636.491,389.416,639.977,389.692,643.326,388.059z"/>
		<path fill="#F2DDB3" d="M632.466,368.584c1.957-3.171,2.037-6.683,0.189-7.838c-1.854-1.154-4.943,0.482-6.898,3.655
			c-1.956,3.171-2.04,6.683-0.186,7.836C627.425,373.396,630.512,371.762,632.466,368.584z"/>
		<path fill="#F2DDB3" d="M635.972,432.381c2.082,3.088,5.25,4.61,7.062,3.402c1.818-1.207,1.599-4.699-0.483-7.792
			c-2.08-3.087-5.245-4.611-7.06-3.402C633.674,425.802,633.886,429.289,635.972,432.381z"/>
		<path fill="#F2DDB3" d="M596.848,461.997c-0.628,3.675,0.608,6.96,2.755,7.342c2.148,0.381,4.405-2.292,5.038-5.966
			c0.626-3.671-0.606-6.958-2.755-7.336C599.733,455.654,597.479,458.322,596.848,461.997z"/>
		<path fill="#F2DDB3" d="M575.466,457.129c-2.345,2.897-2.872,6.366-1.184,7.746c1.682,1.381,4.958,0.153,7.306-2.741
			c2.343-2.896,2.874-6.364,1.184-7.743C581.082,453.006,577.807,454.232,575.466,457.129z"/>
		<path fill="#F2DDB3" d="M616.998,451.953c1.077,3.562,3.644,5.939,5.738,5.312c2.086-0.629,2.916-4.031,1.846-7.596
			c-1.075-3.558-3.648-5.937-5.738-5.306C616.747,444.988,615.923,448.389,616.998,451.953z"/>
		<path fill="#F2DDB3" d="M564.945,372.364c-1.037-3.571-3.576-5.973-5.67-5.368c-2.09,0.607-2.949,4-1.908,7.573
			c1.035,3.57,3.574,5.974,5.666,5.369C565.125,379.33,565.98,375.938,564.945,372.364z"/>
	</g>
	<g>
		<path fill="#B63A1D" d="M809,510.405c35.837-12.76,54.543-52.156,41.788-87.992c-12.758-35.839-52.155-54.548-87.99-41.788
			c-35.841,12.758-54.547,52.152-41.792,87.991C733.769,504.451,773.164,523.162,809,510.405z"/>
		<path fill="#C75634" d="M850.789,422.413c-12.758-35.839-52.155-54.548-87.99-41.788c-35.841,12.758-54.547,52.152-41.792,87.991
			c12.762,35.835,52.157,54.546,87.994,41.789C844.837,497.645,863.544,458.249,850.789,422.413z M724.162,467.494
			c-12.14-34.098,5.661-71.579,39.76-83.719c34.098-12.137,73.857,4.042,85.998,38.139c12.137,34.095-7.943,73.198-42.044,85.338
			C773.78,519.392,736.3,501.588,724.162,467.494z"/>
		<path fill="#F2DDB3" d="M746.237,430.714c-2.689-1.237-5.457-0.963-6.182,0.611c-0.724,1.574,0.868,3.854,3.554,5.094
			c2.689,1.238,5.456,0.962,6.185-0.613C750.515,434.232,748.921,431.951,746.237,430.714z"/>
		
			<ellipse transform="matrix(-0.1072 -0.9942 0.9942 -0.1072 368.7648 1240.0078)" fill="#F2DDB3" cx="741.147" cy="454.428" rx="3.139" ry="5.359"/>
		<path fill="#F2DDB3" d="M797.82,403.21c0.925-2.815,0.343-5.545-1.303-6.1c-1.644-0.553-3.734,1.285-4.661,4.098
			c-0.929,2.815-0.345,5.546,1.297,6.097C794.803,407.86,796.894,406.024,797.82,403.21z"/>
		<path fill="#F2DDB3" d="M822.111,431.219c2.665-1.298,4.215-3.622,3.466-5.185c-0.751-1.564-3.521-1.782-6.189-0.486
			c-2.663,1.297-4.212,3.62-3.463,5.18C816.675,432.299,819.448,432.518,822.111,431.219z"/>
		<path fill="#F2DDB3" d="M813.478,415.73c1.551-2.523,1.616-5.315,0.146-6.233c-1.472-0.918-3.93,0.383-5.483,2.905
			c-1.558,2.523-1.622,5.314-0.148,6.232C809.465,419.556,811.922,418.256,813.478,415.73z"/>
		<path fill="#F2DDB3" d="M816.265,466.466c1.656,2.459,4.173,3.668,5.616,2.707c1.443-0.959,1.273-3.738-0.384-6.196
			c-1.654-2.455-4.171-3.667-5.617-2.706C814.433,461.235,814.606,464.007,816.265,466.466z"/>
		<path fill="#F2DDB3" d="M785.148,490.02c-0.502,2.923,0.484,5.535,2.192,5.836c1.708,0.306,3.502-1.821,4.005-4.741
			c0.498-2.92-0.483-5.532-2.193-5.834C787.443,484.975,785.649,487.098,785.148,490.02z"/>
		<path fill="#F2DDB3" d="M768.142,486.147c-1.866,2.307-2.284,5.066-0.939,6.163c1.339,1.097,3.942,0.121,5.813-2.182
			c1.859-2.302,2.28-5.061,0.934-6.159C772.611,482.87,770.008,483.845,768.142,486.147z"/>
		<path fill="#F2DDB3" d="M801.174,482.032c0.854,2.83,2.899,4.722,4.563,4.224c1.661-0.5,2.317-3.208,1.468-6.042
			c-0.857-2.83-2.899-4.721-4.561-4.219C800.976,476.493,800.319,479.198,801.174,482.032z"/>
		<path fill="#F2DDB3" d="M759.777,418.737c-0.829-2.844-2.848-4.753-4.509-4.271c-1.667,0.483-2.347,3.18-1.524,6.022
			c0.829,2.84,2.847,4.753,4.511,4.269C759.919,424.277,760.598,421.578,759.777,418.737z"/>
	</g>
	<g>
		<path fill="#B63A1D" d="M631.698,924.937c35.837-12.761,54.545-52.155,41.785-87.986c-12.754-35.842-52.148-54.551-87.988-41.792
			c-35.841,12.761-54.547,52.153-41.788,87.991C556.463,918.989,595.861,937.693,631.698,924.937z"/>
		<path fill="#C75634" d="M673.483,836.951c-12.754-35.842-52.148-54.551-87.988-41.792c-35.841,12.761-54.547,52.153-41.788,87.991
			c12.756,35.838,52.153,54.543,87.99,41.787C667.535,912.176,686.243,872.782,673.483,836.951z M546.859,882.028
			c-12.139-34.096,5.662-71.577,39.762-83.717c34.095-12.136,73.856,4.04,85.997,38.137c12.135,34.096-7.944,73.203-42.043,85.34
			C596.479,933.925,558.998,916.124,546.859,882.028z"/>
		<path fill="#F2DDB3" d="M568.935,845.248c-2.689-1.235-5.459-0.96-6.181,0.614c-0.727,1.574,0.869,3.854,3.556,5.093
			c2.682,1.235,5.454,0.958,6.178-0.616C573.214,848.769,571.62,846.487,568.935,845.248z"/>
		<path fill="#F2DDB3" d="M563.511,865.84c-2.943,0.316-5.178,1.975-4.994,3.697c0.186,1.72,2.719,2.865,5.662,2.547
			c2.943-0.314,5.176-1.974,4.99-3.696C568.987,866.667,566.451,865.524,563.511,865.84z"/>
		<path fill="#F2DDB3" d="M620.518,817.744c0.927-2.815,0.342-5.546-1.301-6.099c-1.646-0.552-3.736,1.284-4.663,4.099
			c-0.925,2.814-0.346,5.544,1.297,6.097C617.5,822.394,619.588,820.56,620.518,817.744z"/>
		<path fill="#F2DDB3" d="M644.808,845.754c2.667-1.298,4.217-3.621,3.466-5.187c-0.751-1.562-3.522-1.781-6.188-0.482
			c-2.663,1.293-4.212,3.617-3.464,5.181C639.372,846.83,642.146,847.05,644.808,845.754z"/>
		<path fill="#F2DDB3" d="M636.174,830.265c1.552-2.523,1.614-5.313,0.148-6.232c-1.474-0.919-3.93,0.383-5.485,2.903
			c-1.556,2.525-1.622,5.314-0.149,6.234C632.164,834.091,634.618,832.791,636.174,830.265z"/>
		<path fill="#F2DDB3" d="M638.962,881.002c1.656,2.458,4.176,3.668,5.616,2.708c1.443-0.967,1.275-3.74-0.382-6.201
			c-1.654-2.453-4.173-3.668-5.614-2.705C637.131,875.77,637.303,878.545,638.962,881.002z"/>
		<path fill="#F2DDB3" d="M607.845,904.558c-0.5,2.917,0.486,5.534,2.194,5.836c1.707,0.305,3.5-1.821,4.005-4.743
			c0.497-2.919-0.482-5.532-2.19-5.838C610.14,899.512,608.348,901.634,607.845,904.558z"/>
		<path fill="#F2DDB3" d="M590.841,900.686c-1.864,2.307-2.284,5.062-0.941,6.156c1.342,1.097,3.945,0.122,5.811-2.176
			c1.864-2.303,2.282-5.062,0.941-6.159C595.308,897.405,592.705,898.38,590.841,900.686z"/>
		<path fill="#F2DDB3" d="M623.873,896.569c0.851,2.831,2.897,4.723,4.563,4.22c1.659-0.498,2.314-3.203,1.465-6.038
			c-0.855-2.829-2.899-4.721-4.561-4.219C623.675,891.031,623.014,893.733,623.873,896.569z"/>
		<path fill="#F2DDB3" d="M582.472,833.273c-0.821-2.841-2.843-4.753-4.509-4.271c-1.664,0.483-2.343,3.18-1.518,6.023
			c0.822,2.838,2.845,4.75,4.509,4.27C582.62,838.812,583.296,836.113,582.472,833.273z"/>
	</g>
	<g>
		<path fill="#B63A1D" d="M453.405,593.886c38.246-13.615,58.207-55.657,44.592-93.897c-13.613-38.245-55.654-58.21-93.898-44.594
			c-38.245,13.616-58.209,55.656-44.595,93.9C373.124,587.537,415.164,607.5,453.405,593.886z"/>
		<path fill="#C75634" d="M497.998,499.988c-13.613-38.245-55.654-58.21-93.898-44.594c-38.245,13.616-58.209,55.656-44.595,93.9
			c13.619,38.243,55.659,58.207,93.901,44.592C491.651,580.271,511.612,538.229,497.998,499.988z M362.873,548.097
			c-12.956-36.386,6.039-76.385,42.424-89.34c36.386-12.953,78.822,4.313,91.776,40.7c12.952,36.385-8.475,78.114-44.865,91.067
			C415.822,603.478,375.823,584.48,362.873,548.097z"/>
		<path fill="#F2DDB3" d="M386.428,508.847c-2.869-1.32-5.82-1.025-6.595,0.653c-0.775,1.679,0.922,4.111,3.792,5.435
			c2.869,1.318,5.82,1.025,6.593-0.653C390.991,512.6,389.292,510.167,386.428,508.847z"/>
		<path fill="#F2DDB3" d="M380.638,530.823c-3.135,0.334-5.524,2.103-5.33,3.941c0.2,1.836,2.901,3.057,6.043,2.719
			c3.143-0.336,5.525-2.105,5.331-3.943C386.482,531.702,383.773,530.484,380.638,530.823z"/>
		<path fill="#F2DDB3" d="M441.476,479.495c0.985-3.006,0.365-5.917-1.391-6.507c-1.754-0.593-3.986,1.368-4.978,4.372
			c-0.989,3.006-0.364,5.919,1.386,6.506C438.255,484.458,440.483,482.501,441.476,479.495z"/>
		<path fill="#F2DDB3" d="M467.395,509.386c2.845-1.387,4.499-3.864,3.702-5.533c-0.801-1.667-3.764-1.901-6.605-0.516
			c-2.841,1.383-4.498,3.859-3.694,5.528C461.594,510.535,464.555,510.771,467.395,509.386z"/>
		<path fill="#F2DDB3" d="M458.187,492.859c1.654-2.692,1.722-5.673,0.152-6.652c-1.568-0.98-4.191,0.407-5.853,3.098
			c-1.657,2.692-1.727,5.673-0.158,6.653C453.9,496.94,456.521,495.553,458.187,492.859z"/>
		<path fill="#F2DDB3" d="M461.155,546.998c1.771,2.623,4.454,3.916,5.993,2.891c1.544-1.026,1.36-3.991-0.406-6.616
			c-1.767-2.621-4.454-3.912-5.991-2.884C459.203,541.415,459.39,544.375,461.155,546.998z"/>
		<path fill="#F2DDB3" d="M427.954,572.136c-0.535,3.115,0.517,5.907,2.34,6.229c1.818,0.325,3.734-1.946,4.272-5.062
			c0.533-3.114-0.516-5.907-2.338-6.228C430.4,566.753,428.484,569.018,427.954,572.136z"/>
		<path fill="#F2DDB3" d="M409.804,568.005c-1.988,2.457-2.434,5.405-0.999,6.572c1.427,1.174,4.201,0.13,6.199-2.323
			c1.988-2.457,2.435-5.4,1.001-6.572C414.569,564.509,411.792,565.547,409.804,568.005z"/>
		<path fill="#F2DDB3" d="M445.054,563.607c0.911,3.027,3.091,5.044,4.87,4.51c1.773-0.532,2.472-3.42,1.57-6.446
			c-0.916-3.018-3.1-5.038-4.874-4.502C444.843,557.702,444.14,560.585,445.054,563.607z"/>
		<path fill="#F2DDB3" d="M400.876,496.065c-0.879-3.03-3.037-5.069-4.812-4.555c-1.779,0.516-2.504,3.392-1.624,6.428
			c0.883,3.028,3.035,5.069,4.815,4.555C401.026,501.98,401.754,499.097,400.876,496.065z"/>
	</g>
	<g>
		<circle fill="#B2071D" cx="515.14" cy="696.857" r="68.879"/>
		<path fill="#C75634" d="M580.027,673.754c-12.758-35.837-52.151-54.547-87.99-41.786c-35.839,12.757-54.548,52.153-41.788,87.989
			c12.757,35.839,52.157,54.548,87.992,41.789C574.077,748.988,592.789,709.591,580.027,673.754z M453.401,718.835
			c-12.139-34.095,5.66-71.578,39.759-83.718c34.097-12.139,73.863,4.043,86,38.138c12.137,34.097-7.943,73.199-42.044,85.34
			C503.021,770.733,465.541,752.931,453.401,718.835z"/>
		<path fill="#F2DDB3" d="M475.478,682.056c-2.691-1.235-5.457-0.963-6.181,0.612c-0.727,1.574,0.867,3.854,3.554,5.092
			c2.689,1.238,5.457,0.961,6.182-0.613C479.754,685.572,478.162,683.293,475.478,682.056z"/>
		<path fill="#F2DDB3" d="M470.051,702.647c-2.939,0.316-5.173,1.972-4.989,3.694c0.186,1.722,2.719,2.864,5.662,2.55
			c2.941-0.317,5.174-1.974,4.99-3.696C475.529,703.474,472.993,702.332,470.051,702.647z"/>
		<path fill="#F2DDB3" d="M527.061,654.552c0.925-2.815,0.343-5.547-1.303-6.102c-1.641-0.55-3.732,1.286-4.661,4.098
			c-0.928,2.818-0.345,5.548,1.297,6.098C524.044,659.201,526.132,657.368,527.061,654.552z"/>
		<path fill="#F2DDB3" d="M551.352,682.561c2.665-1.297,4.217-3.621,3.463-5.185c-0.749-1.564-3.52-1.782-6.187-0.487
			c-2.662,1.298-4.212,3.62-3.465,5.184C545.917,683.639,548.689,683.861,551.352,682.561z"/>
		<path fill="#F2DDB3" d="M542.718,667.073c1.552-2.525,1.614-5.314,0.145-6.236c-1.472-0.916-3.928,0.385-5.484,2.907
			c-1.555,2.521-1.619,5.314-0.146,6.234C538.708,670.899,541.163,669.596,542.718,667.073z"/>
		<path fill="#F2DDB3" d="M545.505,717.81c1.658,2.458,4.177,3.667,5.616,2.704c1.441-0.958,1.273-3.738-0.38-6.195
			c-1.658-2.456-4.175-3.668-5.623-2.707C543.674,712.576,543.848,715.348,545.505,717.81z"/>
		<path fill="#F2DDB3" d="M514.389,741.363c-0.502,2.922,0.485,5.534,2.192,5.837c1.707,0.303,3.502-1.824,4.005-4.743
			c0.498-2.919-0.483-5.535-2.193-5.834C516.682,736.319,514.89,738.441,514.389,741.363z"/>
		<path fill="#F2DDB3" d="M497.383,737.491c-1.864,2.305-2.282,5.064-0.938,6.161c1.337,1.098,3.94,0.121,5.813-2.179
			c1.862-2.304,2.28-5.062,0.935-6.159C501.85,734.213,499.247,735.189,497.383,737.491z"/>
		<path fill="#F2DDB3" d="M530.416,733.371c0.853,2.835,2.899,4.727,4.563,4.227c1.662-0.5,2.317-3.205,1.47-6.039
			c-0.86-2.83-2.902-4.723-4.564-4.22C530.215,727.836,529.559,730.539,530.416,733.371z"/>
		<path fill="#F2DDB3" d="M489.018,670.078c-0.827-2.84-2.845-4.749-4.509-4.268c-1.666,0.484-2.346,3.179-1.521,6.021
			c0.825,2.839,2.845,4.75,4.509,4.267C489.162,675.617,489.839,672.919,489.018,670.078z"/>
	</g>
	<g>
		<path fill="#B63A1D" d="M725.023,730.629c49.476-17.617,75.3-71.999,57.687-121.47c-17.613-49.478-71.997-75.304-121.471-57.692
			c-49.476,17.613-75.302,72.001-57.688,121.471C621.164,722.411,675.549,748.24,725.023,730.629z"/>
		<path fill="#C75634" d="M782.71,609.159c-17.613-49.478-71.997-75.304-121.471-57.692
			c-49.476,17.613-75.302,72.001-57.688,121.471c17.613,49.473,71.998,75.302,121.472,57.691
			C774.5,713.012,800.323,658.63,782.71,609.159z M607.903,671.392c-16.76-47.072,7.813-98.815,54.887-115.573
			c47.068-16.757,101.964,5.578,118.723,52.648c16.759,47.07-10.966,101.052-58.037,117.812
			C676.402,743.034,624.664,718.459,607.903,671.392z"/>
		<path fill="#F2DDB3" d="M638.376,620.615c-3.711-1.707-7.532-1.327-8.533,0.846c-1.001,2.172,1.197,5.319,4.907,7.032
			c3.714,1.708,7.534,1.327,8.533-0.846C644.283,625.475,642.083,622.326,638.376,620.615z"/>
		<path fill="#F2DDB3" d="M630.889,649.045c-4.059,0.434-7.146,2.723-6.891,5.098c0.255,2.379,3.756,3.955,7.812,3.519
			c4.066-0.438,7.149-2.723,6.894-5.098C638.453,650.184,634.949,648.609,630.889,649.045z"/>
		<path fill="#F2DDB3" d="M709.586,582.646c1.279-3.888,0.477-7.657-1.794-8.421c-2.271-0.761-5.155,1.775-6.437,5.658
			c-1.284,3.888-0.479,7.656,1.79,8.417C705.426,589.067,708.309,586.533,709.586,582.646z"/>
		<path fill="#F2DDB3" d="M743.123,621.313c3.678-1.792,5.818-4.999,4.785-7.16c-1.037-2.155-4.867-2.457-8.547-0.667
			c-3.672,1.79-5.816,4.998-4.777,7.153C735.617,622.8,739.443,623.106,743.123,621.313z"/>
		<path fill="#F2DDB3" d="M731.204,599.932c2.142-3.484,2.232-7.335,0.198-8.605c-2.03-1.267-5.42,0.529-7.572,4.012
			c-2.144,3.484-2.234,7.335-0.2,8.604C725.666,605.211,729.056,603.417,731.204,599.932z"/>
		<path fill="#F2DDB3" d="M735.05,669.974c2.289,3.391,5.761,5.062,7.752,3.734c1.995-1.326,1.756-5.16-0.53-8.554
			c-2.283-3.389-5.754-5.063-7.75-3.736C732.523,662.752,732.76,666.579,735.05,669.974z"/>
		<path fill="#F2DDB3" d="M692.095,702.489c-0.69,4.034,0.668,7.64,3.027,8.061c2.355,0.419,4.831-2.516,5.528-6.55
			c0.689-4.03-0.66-7.638-3.025-8.053C695.263,695.524,692.786,698.453,692.095,702.489z"/>
		<path fill="#F2DDB3" d="M668.618,697.145c-2.571,3.182-3.149,6.989-1.298,8.505c1.854,1.516,5.445,0.167,8.025-3.008
			c2.568-3.18,3.147-6.988,1.293-8.503C674.78,692.618,671.188,693.966,668.618,697.145z"/>
		<path fill="#F2DDB3" d="M714.217,691.459c1.179,3.912,4,6.523,6.301,5.833c2.293-0.69,3.195-4.423,2.026-8.336
			c-1.183-3.911-4.001-6.523-6.298-5.827C713.943,683.814,713.038,687.549,714.217,691.459z"/>
		<path fill="#F2DDB3" d="M657.073,604.082c-1.143-3.922-3.931-6.558-6.231-5.892c-2.298,0.666-3.238,4.388-2.098,8.311
			c1.139,3.92,3.932,6.56,6.225,5.895C657.267,611.729,658.207,608.003,657.073,604.082z"/>
	</g>
	<path fill="#7DAB39" d="M547.36,572.117c5.888-32.389-2.95-45.636,16.193-47.109c19.139-1.475,19.139,7.362,23.556,5.89
		c4.415-1.474,8.831,5.89,7.364,19.137c-1.476,13.25-11.779,72.135-16.196,58.889c-4.418-13.25-14.724-38.278-14.724-38.278
		L547.36,572.117z"/>
	<path fill="#7DAB39" d="M411.918,391.039c13.25-7.361,26.496,5.89,30.917,7.36c4.412,1.473,54.467-13.249,54.467-13.249
		l-5.888,41.221l-8.832,22.084l4.415-48.584l-44.162,17.667l-32.389-30.917"/>
	<path fill="#7DAB39" d="M316.224,421.956c8.838-19.14,36.806-73.608,50.055-66.248c13.252,7.36-5.884,51.526,2.948,57.415
		c8.833,5.887,26.5-5.891,27.97,5.887c1.469,11.777-19.137,22.083-29.445,29.445c-10.305,7.36-39.747,13.25-33.86,0
		c5.89-13.251,7.362-19.139,7.362-19.139L316.224,421.956z"/>
	<path fill="#7DAB39" d="M666.605,499.98c14.723-16.195,27.968-2.943,32.388,4.417c4.419,7.36,29.448,7.362,32.391,14.723
		c2.943,7.362-101.582,36.802-91.277,17.665c10.305-19.137,17.667-36.804,17.667-36.804H666.605z"/>
	<path fill="#7DAB39" d="M697.521,342.456c5.682,17.05-10.303,53.001,10.307,36.807c20.608-16.194,30.916-27.972,30.916-27.972
		s5.886-8.834,1.473-13.249C735.801,333.624,688.69,315.954,697.521,342.456z"/>
	<path fill="#7DAB39" d="M436.945,620.701c12.071,6.207,32.39,5.889,42.694-13.25c10.305-19.137,19.137-13.25,19.137-8.833
		S385.417,594.2,436.945,620.701z"/>
	<path fill="#7DAB39" d="M601.829,713.447c-11.776,32.388-58.886,7.36-50.054,20.61c8.836,13.251,35.336,27.971,42.698,33.862
		c7.356,5.891,22.076,13.249,23.55,1.47c1.473-11.775-20.611-69.189-19.137-64.775"/>
	<path fill="#7DAB39" d="M581.219,948.998c-0.693,0.975-1.394,1.958-2.094,2.935c-14.07,19.71-27.636,39.547-3.794,35.343
		c25.027-4.417,38.274-19.141,41.219,0c2.947,19.137,54.474-13.25,57.418-20.61c2.943-7.36-60.357,14.724-58.888-4.417"/>
	<path fill="#7DAB39" d="M698.993,763.503c10.62-31.848-45.638,57.414-36.805,60.357c8.836,2.945,20.613,20.613,39.75,1.474
		c19.137-19.139,41.219-20.61,41.219-33.861c0-13.248,1.472-29.444-5.888-32.387C729.909,756.143,697.519,767.919,698.993,763.503z"
		/>
	<path fill="#7DAB39" d="M488.472,787.058c-4.417,8.833,10.305,38.274,16.193,42.691c5.893,4.418,20.612,14.725,20.612,13.251
		c0-1.472,5.885-29.443,14.721-41.222C548.832,790.001,488.472,787.058,488.472,787.058z"/>
	<path fill="#7DAB39" d="M769.66,548.562c-7.362,19.141-41.223,67.723-8.836,54.473c32.389-13.249,45.644-38.279,47.113-47.112
		c1.47-8.83,2.943-16.194,2.943-16.194s-27.976,36.809-29.443,36.809c-1.47,0,5.89-44.169,5.89-44.169L769.66,548.562z"/>
</g>
<path opacity="0.6" fill="#211915" d="M290.524,929.333l-28.042-85.19l200.413-48.82l441.929,25.696l17.227,107.059
	c-25.109,35.154-81.61,62.778-81.61,62.778s-120.224-41.861-112.901-49.075c1.161-1.147,12.461-32.533,17.986-38.542
	c-105.345-41.109-282.63-7.708-282.63-7.708s7.706,12.851,12.845,28.265c-33.402,7.708-104.864,69.574-104.864,69.574
	S311.869,955.701,290.524,929.333z"/>
<path fill="#006536" d="M964.252,963.169c-215.094-135.58-453.838-153.267-717.36-5.89
	c-39.228-83.361-78.451-181.209-117.678-264.569c328.146-186.393,649.412-174.604,952.717,0
	C1042.708,776.07,1003.481,879.812,964.252,963.169z"/>
</svg>
